<svg viewBox="0 0 1440 314.92" xmlns="http://www.w3.org/2000/svg">
      <g transform="translate(0 -45.11)">
        <path
          d="m0 136 48-16c48-16 144-48 240-16s192 128 288 154.7c96 26.3 192-15.7 288-42.7s192-37 288-21.3c96 16.3 192 58.3 240 80l48 21.3v64h-1440z"
          fill="#79c89f"
        ></path>
        <path
          d="m303.82 112.59c-3.25-.2-6.43 0-9.72-.8-6-1.47-8.5-5.44-9.91-10.87-2.61-10.07-1-19.82 2-29.5.25-.82.41-1.7.6-2.53 1.7-2.55 3.22-5.24 5.1-7.65 7.38-9.33 20-9.73 28.05-1a19.18 19.18 0 0 1 3.93 6 9.2 9.2 0 0 0 1.36 1.29c2.6 8.64 4.68 17.36 3.92 26.48a35 35 0 0 1 -.23 4c-2 10.78-6.41 14.48-17.55 14.63h-3.3c-2.95-3-1.17-7-2.15-10.36-.77 3.34 1.14 7.37-2.1 10.32z"
          fill="#79c89f"
        ></path>
        <path
          d="m303.82 112.59c.06-4.13.11-8.23.2-12.35 0-1.32 0-2.93 1.79-2.83 1.43.06 2.06 1.45 2.09 2.83.11 4.13.15 8.23.21 12.35 0 5.47-.06 10.92-.15 16.38 0 1.52 0 3.35-2.27 3.1-1.7-.2-1.63-1.82-1.65-3.1-.1-5.46-.15-10.91-.21-16.38z"
          fill="#818fdb"
        ></path>
        <path
          d="m136.12 96c-2.82-.17-5.58 0-8.44-.69-5.21-1.28-7.37-4.72-8.6-9.43-2.26-8.74-.88-17.19 1.73-25.6.22-.71.36-1.47.52-2.19 1.48-2.22 2.8-4.55 4.43-6.63 6.4-8.1 17.33-8.45 24.34-.88a16.77 16.77 0 0 1 3.41 5.22 7.76 7.76 0 0 0 1.18 1.11c2.25 7.5 4.06 15.06 3.4 23a32.9 32.9 0 0 1 -.2 3.44c-1.73 9.35-5.57 12.56-15.23 12.69h-2.87c-2.55-2.61-1-6.11-1.86-9-.67 2.9 1 6.4-1.82 9z"
          fill="#79c89f"
        ></path>
        <path
          d="m136.12 96c0-3.58.1-7.14.18-10.71 0-1.14 0-2.54 1.54-2.46 1.25.06 1.79 1.26 1.82 2.46.1 3.58.13 7.14.18 10.72 0 4.74-.05 9.47-.13 14.21 0 1.31 0 2.9-2 2.68-1.47-.17-1.41-1.57-1.43-2.68-.08-4.74-.13-9.47-.18-14.21z"
          fill="#818fdb"
        ></path>
        <path
          d="m116.81 108.38h-.72c-4.9.45-6.22-2.41-6.45-6.33-.14-2.6-.41-5.25.35-7.85a8.92 8.92 0 0 0 .09-2.14c.89-6.32 1.83-12.62 3.87-18.7a13.53 13.53 0 0 1 2.31-4.69c1.32-1.51 2.19-1.51 3.51 0a14.07 14.07 0 0 1 2.33 5 86.49 86.49 0 0 1 2.9 12.79c.17 1 .38 2 .55 3.06.26 2.69.46 5.38.78 8.07a17.64 17.64 0 0 1 -.9 8 3.91 3.91 0 0 1 -4.27 2.79c-.8 0-1.6 0-2.41 0-.92-1-.66-2.24-.7-3.39-.08-3.39.1-6.78-.24-10.17-.35 3.39-.16 6.78-.24 10.17 0 1.17.21 2.41-.72 3.39z"
          fill="#79c89f"
        ></path>
        <path
          d="m116.81 108.38c0-4.48 0-9 0-13.43 0-.89-.33-2.26 1-2.21 1.13.06.8 1.38.8 2.2v13.44s0 9.24 0 13.87c0 .87.33 2.26-1 2.19-1.13-.06-.8-1.37-.81-2.19.01-4.63.02-9.25.01-13.87z"
          fill="#8192d9"
        ></path>
        <path
          d="m1198.3 215.22c-1.66 4.62-2.21 5.08-6.89 5.21-1.11 0-2.25 0-3.38.07-2.12-3-.65-6.48-1.22-9.44-.81 2.83 1.18 6.39-1.54 9.16-1.27.05-2.54.19-3.77.15-4.43-.14-6-1.79-6.19-6.14-.2-5.72 1.4-11.07 3.28-16.36a27.8 27.8 0 0 1 3.72-7.5c3-4.05 6.14-4.06 9 .09 3.45 4.95 4.79 10.68 6 16.44a37.38 37.38 0 0 1 .93 8.3z"
          fill="#fff"
        ></path>
        <path
          d="m1185.28 220.25c0-3.64.08-7.28.16-10.92 0-.78-.18-1.89.91-2.05 1.32-.19 1.58.91 1.6 1.93 0 3.78.06 7.56.08 11.33v10.55c0 1.46-.06 2.83-1.6 3.59-1.14-1.43-.94-3.12-1-4.77 0-2.35-.1-4.69-.16-7 0-.91 0-1.75 0-2.6z"
          fill="#8490dd"
        ></path>
        <path
          d="m1158 212c-3.17-.19-6.29 0-9.5-.79-5.86-1.41-8.29-5.31-9.69-10.61-2.55-9.83-1-19.36 1.94-28.8.25-.81.4-1.65.59-2.47 1.65-2.52 3.15-5.13 5-7.46 7.18-9.11 19.51-9.5 27.4-1a18.69 18.69 0 0 1 3.84 5.88 8.75 8.75 0 0 0 1.33 1.25c2.53 8.44 4.57 17 3.83 25.87a38.83 38.83 0 0 1 -.23 3.88c-1.94 10.54-6.27 14.13-17.14 14.28h-3.22c-2.92-3-1.15-6.89-2.11-10.13-.77 3.27 1.1 7.18-2.06 10.08z"
          fill="#79c89f"
        ></path>
        <path
          d="m1158 212c.06-4 .11-8.05.2-12.06 0-1.29 0-2.86 1.74-2.79 1.4.06 2 1.42 2 2.79.1 4 .14 8 .21 12.06 0 5.33-.07 10.66-.16 16 0 1.48 0 3.28-2.23 3-1.67-.19-1.59-1.77-1.61-3-.03-5.35-.08-10.68-.15-16z"
          fill="#818fdb"
        ></path>
        <path
          d="m197.41 90.71h-.77c-5.22.48-6.62-2.57-6.86-6.74-.16-2.77-.44-5.6.37-8.36a9.57 9.57 0 0 0 .1-2.28c.94-6.73 1.95-13.44 4.12-19.91a13.87 13.87 0 0 1 2.46-5c1.4-1.62 2.33-1.61 3.73 0a15.09 15.09 0 0 1 2.44 5.31 94.07 94.07 0 0 1 3.05 13.65c.18 1.08.39 2.17.58 3.25.28 2.86.5 5.74.84 8.59a19 19 0 0 1 -1 8.52 4.17 4.17 0 0 1 -4.55 3c-.85 0-1.7 0-2.55 0-1-1.06-.71-2.38-.75-3.63-.09-3.6.11-7.21-.25-10.81-.38 3.6-.18 7.21-.26 10.82-.05 1.24.22 2.56-.77 3.62z"
          fill="#79c89f"
        ></path>
        <path
          d="m197.41 90.71c0-4.77 0-9.53 0-14.29 0-.94-.35-2.41 1.1-2.35 1.19.06.85 1.47.85 2.35v14.3s0 9.85 0 14.77c0 .93.35 2.4-1.11 2.33-1.19-.06-.85-1.45-.86-2.33.02-4.94.03-9.86.02-14.78z"
          fill="#8192d9"
        ></path>
        <path
          d="m268.67 137.69a4.21 4.21 0 0 0 -.71 0c-4.82.43-6.11-2.37-6.33-6.22-.14-2.55-.4-5.16.34-7.71a8.59 8.59 0 0 0 .09-2.1c.87-6.21 1.8-12.4 3.81-18.37a13 13 0 0 1 2.27-4.62c1.29-1.48 2.16-1.48 3.44 0a13.83 13.83 0 0 1 2.29 4.86 87.39 87.39 0 0 1 2.81 12.59c.17 1 .36 2 .54 3 .25 2.64.45 5.28.76 7.92a17.3 17.3 0 0 1 -.88 7.85 3.85 3.85 0 0 1 -4.2 2.75c-.78-.05-1.57 0-2.36 0-.91-1-.65-2.2-.69-3.35-.08-3.32.1-6.66-.23-10-.35 3.32-.17 6.66-.24 10-.05 1.15.21 2.36-.71 3.35z"
          fill="#bee5ce"
        ></path>
        <path
          d="m268.67 137.69c0-4.4 0-8.8 0-13.2 0-.86-.32-2.23 1-2.16 1.09 0 .78 1.35.79 2.16v13.2s0 9.1 0 13.63c0 .86.32 2.22-1 2.16-1.09 0-.78-1.34-.79-2.16 0-4.55.01-9.09 0-13.63z"
          fill="#8192d9"
        ></path>
        <path
          d="m270.67 111.79c-.53-6.3.77-12.43 1.62-18.61 1.45-3.68 2.08-7.65 3.83-11.26a26.45 26.45 0 0 1 1.88-3.46c2.52-3.76 3.72-3.83 7.19-.66a49.39 49.39 0 0 1 5.81 16.85c.05.35.4.66.63 1 1.32 1.44 1.21 3.11.81 4.86 0 2.79.08 5.59.06 8.38-.05 5.6-2.14 7.69-7.69 7.79h-2c-1.58-1.49-1.19-3.45-1.25-5.29-.11-3.6.17-7.21-.12-10-.62 4.59 1.57 10.11-1.25 15.31-.66 0-1.31 0-2 0a6.88 6.88 0 0 1 -7.58-4.86z"
          fill="#b8e2cc"
        ></path>
        <path
          d="m280.25 116.63q0-6.21.11-12.4a23.65 23.65 0 0 1 .1-2.79 1.14 1.14 0 0 1 .93-1.15 1.1 1.1 0 0 1 1.29 1.15c.11 1.46.09 2.93.11 4.39 0 3.6 0 7.2.08 10.8q0 6.23-.08 12.46a16.28 16.28 0 0 1 -.18 2.79 1 1 0 0 1 -1.1.74h-.12c-.33-.11-.79-.44-.83-.72a17.49 17.49 0 0 1 -.19-2.8c-.06-4.15-.09-8.3-.12-12.45z"
          fill="#828fdc"
        ></path>
        <path
          d="m233.66 95c-2 5.08-2.69 5.58-8.37 5.73-1.37 0-2.73.06-4.11.08-2.56-3.33-.78-7.14-1.47-10.4-1 3.12 1.43 7-1.86 10.09-1.54.06-3.08.21-4.57.17-5.37-.16-7.33-2-7.51-6.77-.24-6.29 1.7-12.2 4-18a29.77 29.77 0 0 1 4.52-8.26c3.67-4.45 7.45-4.46 10.95.11 4.19 5.44 5.8 11.76 7.31 18.1a37.81 37.81 0 0 1 1.11 9.15z"
          fill="#fff"
        ></path>
        <path
          d="m217.85 100.52c.07-4 .11-8 .2-12 0-.87-.22-2.09 1.1-2.26 1.61-.21 1.92 1 1.94 2.11.07 4.16.08 8.32.11 12.48v11.61c0 1.61-.08 3.13-1.95 4-1.38-1.57-1.14-3.43-1.17-5.25 0-2.59-.12-5.18-.18-7.76 0-1 0-1.93-.05-2.86z"
          fill="#8490dd"
        ></path>
        <path
          d="m189.28 108.57h-2.16c-3.44 0-5.19-1.77-5.26-5.32a53.64 53.64 0 0 1 2.4-16.3c.54-1.85 1.23-3.69 1.91-5.51a8.18 8.18 0 0 1 .83-1.64c2-3.1 4.43-3.1 6.41.06 1.49 2.36 2.16 5.09 3 7.72a48.31 48.31 0 0 1 2.21 15.72c-.18 4-1.33 5.23-5.43 5.25-.62 0-1.23 0-1.85 0-1.71-1.57-.89-3.65-1-5.52a24.83 24.83 0 0 1 0-3.45c-.66 2.81.84 6.08-1 9z"
          fill="#b8e2cc"
        ></path>
        <path
          d="m189.28 108.57v-8.61c0-.71 0-1.43.05-2.16s.28-1.33 1-1.37c.84-.05.83.73.84 1.33v4.61q0 3.06.11 6.14a13 13 0 0 0 0 3.73c0 2.57-.07 5.14-.14 7.73 0 .48 0 1.13-.67 1.19s-1.09-.57-1.11-1.19c-.06-2.78-.07-5.56-.1-8.35z"
          fill="#8290dc"
        ></path>
        <path
          d="m1232.12 226.89c-3.81-.23-7.55 0-11.42-.95-7-1.7-10-6.39-11.65-12.76-3.06-11.82-1.19-23.27 2.33-34.62.3-1 .48-2 .71-3 2-3 3.78-6.17 6-9 8.63-11 23.45-11.42 32.94-1.19a22.44 22.44 0 0 1 4.61 7.07 11.29 11.29 0 0 0 1.59 1.5c3 10.15 5.51 20.39 4.61 31.1a45.53 45.53 0 0 1 -.27 4.67c-2.34 12.67-7.54 17-20.61 17.17h-3.88c-3.51-3.57-1.37-8.28-2.53-12.18-.92 3.93 1.32 8.64-2.47 12.12z"
          fill="#79c89f"
        ></path>
        <path
          d="m1232.12 226.89c.07-4.85.13-9.67.24-14.5 0-1.55 0-3.44 2.09-3.35 1.69.07 2.42 1.7 2.47 3.35.12 4.84.17 9.66.25 14.5-.06 6.41-.08 12.81-.19 19.23 0 1.78 0 3.94-2.68 3.63-2-.23-1.91-2.13-1.93-3.63-.12-6.42-.18-12.82-.25-19.23z"
          fill="#818fdb"
        ></path>
        <path
          d="m1258.52 236.6h-3.76c-6-.09-9-3.11-9.16-9.27a93.31 93.31 0 0 1 4.18-28.4c1-3.24 2.16-6.43 3.33-9.61a13.26 13.26 0 0 1 1.47-2.85c3.55-5.39 7.69-5.39 11.18.1 2.6 4.12 3.76 8.86 5.13 13.46 2.61 8.92 4.28 18 3.86 27.4-.31 7-2.3 9.12-9.45 9.16-1.09 0-2.17 0-3.25-.05-3-2.74-1.52-6.36-1.8-9.62a46.51 46.51 0 0 1 0-6c-1.12 4.9 1.47 10.62-1.69 15.71z"
          fill="#b8e2cc"
        ></path>
        <path
          d="m1258.52 236.6c0-5 0-10 .08-15 0-1.25 0-2.5.08-3.74s.48-2.32 1.68-2.39c1.47-.09 1.45 1.29 1.45 2.33v8c.05 3.56.13 7.13.2 10.69a22.06 22.06 0 0 0 0 6.49c-.08 4.5-.13 9-.25 13.46 0 .86 0 2-1.17 2.08-1.35.12-1.9-1-1.93-2.07-.12-4.84-.12-9.69-.17-14.54z"
          fill="#8290dc"
        ></path>
        <path
          d="m1210.87 244.52h-3.16c-5-.07-7.55-2.6-7.68-7.77a78.19 78.19 0 0 1 3.51-23.82c.79-2.72 1.81-5.39 2.79-8.06a12 12 0 0 1 1.23-2.39c3-4.52 6.45-4.52 9.38.08 2.18 3.46 3.16 7.44 4.3 11.29a70.35 70.35 0 0 1 3.24 23c-.26 5.88-1.93 7.65-7.93 7.68-.91 0-1.81 0-2.72 0-2.5-2.31-1.27-5.34-1.51-8.07a38.68 38.68 0 0 1 0-5c-.94 4.1 1.23 8.9-1.41 13.17z"
          fill="#b8e2cc"
        ></path>
        <path
          d="m1210.87 244.52.06-12.57c0-1 0-2.1.07-3.14s.41-1.95 1.42-2c1.22-.07 1.2 1.08 1.2 2v6.74c0 3 .11 6 .17 9a18.37 18.37 0 0 0 0 5.44c-.06 3.78-.11 7.51-.21 11.29 0 .71 0 1.66-1 1.74-1.13.1-1.59-.82-1.62-1.73-.1-4.06-.1-8.13-.14-12.2z"
          fill="#8290dc"
        ></path>
        <path
          d="m1372.49 268.86c-2.43 6.13-3.25 6.74-10.1 6.91-1.65.05-3.29.07-5 .1-3.09-4-.94-8.6-1.78-12.54-1.15 3.76 1.74 8.49-2.23 12.16-1.86.08-3.71.26-5.52.21-6.47-.19-8.83-2.37-9.05-8.16-.29-7.58 2.05-14.7 4.8-21.72a35.73 35.73 0 0 1 5.44-10c4.43-5.37 9-5.38 13.21.14 5 6.55 7 14.17 8.82 21.81a45.8 45.8 0 0 1 1.41 11.09z"
          fill="#fff"
        ></path>
        <path
          d="m1353.43 275.52c.08-4.83.12-9.66.23-14.49 0-1-.26-2.52 1.34-2.73 1.93-.25 2.31 1.21 2.33 2.55.08 5 .1 10 .13 15v14c0 1.94-.09 3.77-2.34 4.76-1.67-1.9-1.38-4.14-1.41-6.33 0-3.12-.15-6.24-.23-9.35 0-1.2 0-2.32 0-3.45z"
          fill="#8490dd"
        ></path>
        <path
          d="m1344.2 278.59c-2.42 6.14-3.24 6.74-10.1 6.92-1.64.05-3.28.06-4.94.1-3.1-4-.94-8.61-1.78-12.55-1.15 3.76 1.73 8.5-2.23 12.16-1.86.08-3.72.26-5.52.21-6.47-.19-8.83-2.37-9.06-8.16-.29-7.57 2.06-14.7 4.81-21.72a35.87 35.87 0 0 1 5.44-10c4.43-5.37 9-5.38 13.21.14 5 6.55 7 14.17 8.81 21.82a45.17 45.17 0 0 1 1.36 11.08z"
          fill="#fff"
        ></path>
        <path
          d="m1325.15 285.25c.07-4.82.12-9.66.23-14.49 0-1.05-.26-2.52 1.33-2.72 1.93-.26 2.31 1.2 2.34 2.54.08 5 .09 10 .13 15.05v14c0 1.94-.1 3.76-2.35 4.75-1.66-1.89-1.37-4.13-1.41-6.33 0-3.12-.15-6.23-.22-9.35 0-1.2 0-2.32 0-3.45z"
          fill="#8490dd"
        ></path>
      </g>
    </svg>