<svg viewBox="0 0 210.22 92.74" xmlns="http://www.w3.org/2000/svg"><path d="m-371.27 603.6c1.87 1 3.36 1.85 4.93 2.58 4.57 2.15 6 5.63 5.3 9.71-.16 1-1.81 2.17-3 2.48-1.68.43-3.63.11-5.46.11q-94.21 0-188.42.07c-4.76 0-7.74-1.24-9.93-4.89-8.26-13.73-.05-28 18-31 7.83-1.31 7.63-1.32 8.32-7.88.73-6.9 1.31-13.93 7.73-19.22 9.15-7.54 19.47-7.48 30.46-3.48 2.39.86 5.09 2.22 6.22-1.42 3.92-12.52 15.86-17.83 28.24-22.8 13.87-5.57 39.39.82 48.73 15.61a84.3 84.3 0 0 1 6.69 11.84c1.62 3.82 4 4.48 8.29 3.46 7.35-1.73 14.65 1.11 17.14 6.33.53 1.11 1 2.65.55 3.63-1.8 3.64-.44 4.53 3.93 4.85 17.23 1.27 24.15 18.23 14.49 26.58-1 .84-1.41 2.14-2.21 3.44z" fill="#fff" transform="translate(571.11 -525.86)"/></svg>