<svg viewBox="0 0 344.31 163.86" xmlns="http://www.w3.org/2000/svg"><path d="m-349.73 396.33c3.72-2.42 7-4.45 10.14-6.6 29.51-20.14 74.73-6.06 85.51 26.64.59 1.79 1.54 3.54 1.74 5.36.81 7.36 4.39 11.42 12.66 13.14 8.05 1.69 12.2 7.76 11.33 15.82-.59 5.44 1.55 8.73 6.51 11.72 9.25 5.57 11.27 16.32 5.19 24.74-.95 1.31-3.16 2.2-4.94 2.5a51.7 51.7 0 0 1 -8.55.36h-313c-14 0-15.15-1-14-14.33 1.27-15.37 4.1-30.24 15.29-42.63 5.92-6.55 12.57-11.05 22-10 7.6.85 9.56-2.77 10.81-9 3-14.91 5.33-30.17 10.64-44.39 16.33-43.72 55.86-53.71 98.94-33.41 22.71 10.69 33.91 30.22 44.11 50.53 1.09 2.18 2.13 4.38 3.27 6.54a29.69 29.69 0 0 0 2.35 3.01z" fill="#fff" transform="translate(557.49 -326.16)"/></svg>