<svg viewBox="0 0 148.98 70.24" xmlns="http://www.w3.org/2000/svg"><path d="m-460.3 814.78c-24 0-47.92-.06-71.88.06-4.21 0-6.62-1.21-7.13-5.11-.28-2.07-1.07-4.11-1.15-6.18-.49-11.7 6.4-16.65 19-13.74.65.15 1.26.41 1.9.57 6.14 1.51 6.69 1.09 7-4.78.65-11.7 4.15-22.46 13-31.4 14.56-14.7 42.16-11.27 51.64 6.42 3.5 6.55 3.41 6.18 11.61 4.46a31.41 31.41 0 0 1 12.66.23c8.05 1.74 10.84 7.77 12.3 14.41a23.89 23.89 0 0 1 .44 4c.24 5.22 1.67 9 8.47 10.58 7.22 1.62 10.28 7.25 10.9 13.7.5 5.3-1.5 7.15-7.3 7.16q-30.71 0-61.42 0z" fill="#fff" transform="translate(540.49 -744.98)"/></svg>