<svg viewBox="0 0 363.71 144.51" xmlns="http://www.w3.org/2000/svg"><path d="m-376.51 211.52q-84.71 0-169.42 0c-13 0-11.68 1.84-11.4-10.08.19-7.83 4.68-11.73 14-13.08 9-1.31 9.35-2 10.31-9.57 1.12-8.7.56-17.62 5.11-25.9 5.37-9.78 14.35-16 27-17.49 5.47-.64 11.52.71 17 2 9.15 2.08 9.36 2.19 9.37-5.39 0-15.61 8.53-28.58 18.81-40.91s24.86-20 42.45-22.77c18.62-3 35.65.83 50.15 11.29 16.16 11.66 26 26.66 32.59 43.2 3.28 8.17 2.92 8.19 11.32 3.42 11.58-6.58 24.59-6.73 37.49-4.41 24.18 4.35 38.41 17.94 46.62 36.46 1.12 2.54 1.31 5.38 1.76 8.1.57 3.38 2.68 4.92 6.93 5.19a74.72 74.72 0 0 1 13.21 2c11.94 3 17.65 10.28 18.77 20.17.55 4.78.36 9.62.62 14.44.12 2.32-1.22 3.24-3.83 3.31-3.33.09-6.66.32-10 .32q-84.45 0-168.91 0z" fill="#fff" transform="translate(557.49 -67.34)"/></svg>