<svg viewBox="0 0 448.42 384.18" xmlns="http://www.w3.org/2000/svg"><g transform="translate(-81.82 -203.84)"><path d="m306 267.89q-95.5 0-191 0c-29.54.11-37.34-25.56-31.2-43.79 4.34-12.85 15.15-20.17 30.13-20.21 30.51-.08 61 0 91.51 0q145.77 0 291.53 0c24.19 0 38.54 19.59 31.46 42.82-4 13.15-15.13 21.13-29.95 21.17q-49.25.11-98.51 0h-93.97z"/><path d="m306 428c-63.67 0-127.34-.1-191 0-29 .07-37.59-25.22-31-44.29 4.32-12.51 15.23-19.71 30-19.75 31-.08 62 0 93 0q144.27 0 288.53.08a48.29 48.29 0 0 1 13.31 1.58c14.91 4.32 23.38 18.9 21 35.34s-14.11 26.92-30.78 27c-33 .14-66 0-99 .06h-94.06z"/><path d="m305.58 588q-95.52 0-191 0c-30.21 0-37.35-27.5-30.13-45.56 4.65-11.71 15.25-18.44 29.34-18.44q46-.1 92 0 145.51 0 291 0c16.56 0 28.1 8 31.89 22 6.31 23.3-8 42-32.13 42z"/></g></svg>