<svg viewBox="0 0 223.99 225" xmlns="http://www.w3.org/2000/svg"><path d="m106 0h13l19.6 2.67a9.73 9.73 0 0 1 -4.24 2.55c-39.09 14.31-62.72 54.67-55 93.86 12.47 62.94 86 90.76 137.25 51.92 2.36-1.78 4.89-3.34 7.34-5v1c-.93 1.87-2 3.7-2.78 5.63-13.6 33.75-38.06 55.91-72.49 66.88-8.92 2.85-18.47 3.71-27.73 5.49h-12.95a22.42 22.42 0 0 0 -3.33-.8c-47.58-4.11-86.17-35-100-80.4-2.16-7.08-3.14-14.52-4.67-21.8v-19c.39-2.44.7-4.89 1.17-7.32 8.61-44.68 34.38-74.68 77.25-89.59 8.82-3.09 18.36-4.09 27.58-6.09z" fill="#f3f3fb" transform="translate(-.01)"/></svg>